<?xml version="1.0" encoding="UTF-8" standalone="no"?>
<!DOCTYPE svg PUBLIC "-//W3C//DTD SVG 1.1//EN" "http://www.w3.org/Graphics/SVG/1.1/DTD/svg11.dtd">
<svg width="100%" height="100%" viewBox="0 0 614 630" version="1.1" xmlns="http://www.w3.org/2000/svg" xmlns:xlink="http://www.w3.org/1999/xlink" xml:space="preserve" xmlns:serif="http://www.serif.com/" style="fill-rule:evenodd;clip-rule:evenodd;stroke-linejoin:round;stroke-miterlimit:2;">
    <g transform="matrix(1,0,0,1,-457.512938,-160.110236)">
        <g transform="matrix(1,0,0,1,150.653543,42)">
            <path d="M818.292,362.969C818.292,357.624 815.44,352.684 810.81,350.011C793.103,339.788 750.101,314.961 750.101,314.961L750.101,393.701L681.91,354.331L681.91,275.591C681.91,275.591 649.801,257.052 629.649,245.418C619.791,239.726 607.646,239.726 597.788,245.418C577.637,257.052 545.528,275.591 545.528,275.591L545.528,354.331L477.337,393.701L477.337,314.961C477.337,314.961 434.66,339.6 416.83,349.894C412.075,352.64 409.146,357.713 409.146,363.203C409.146,390.797 409.146,474.92 409.146,502.759C409.146,508.36 412.134,513.536 416.986,516.337C427.814,522.589 447.59,534.007 461.548,542.065C471.318,547.706 477.337,558.131 477.337,569.413L477.337,748.031C477.337,748.031 408.433,708.25 358.237,679.269C326.445,660.914 306.859,626.991 306.859,590.28L306.859,354.499C306.859,317.851 326.411,283.988 358.148,265.664C414.838,232.934 505.615,180.524 562.341,147.773C594.134,129.418 633.304,129.418 665.097,147.773C721.793,180.507 812.504,232.879 869.2,265.613C900.993,283.968 920.578,317.891 920.578,354.602L920.578,590.28C920.578,626.991 900.993,660.914 869.2,679.269C819.004,708.25 750.101,748.031 750.101,748.031L750.101,569.903C750.101,558.318 756.281,547.613 766.314,541.82C780.275,533.76 799.814,522.479 810.519,516.299C815.329,513.522 818.292,508.39 818.292,502.836C818.292,474.997 818.292,390.344 818.292,362.969Z" style="fill:rgb(69,140,255);"/>
        </g>
    </g>
</svg>
